<svg width="118" height="27" viewBox="0 0 118 27" fill="none" xmlns="http://www.w3.org/2000/svg">
<path d="M114.853 0H2.93427C2.15605 0 1.40971 0.309145 0.859427 0.859427C0.309145 1.40971 0 2.15605 0 2.93427L0 23.8124C0 24.5906 0.309145 25.337 0.859427 25.8872C1.40971 26.4375 2.15605 26.7467 2.93427 26.7467H114.853C115.688 26.7467 116.488 26.4151 117.078 25.825C117.668 25.2349 118 24.4345 118 23.6V3.14667C118 2.31212 117.668 1.51175 117.078 0.921637C116.488 0.331523 115.688 0 114.853 0V0ZM117.213 23.6C117.213 24.2259 116.965 24.8262 116.522 25.2688C116.08 25.7114 115.479 25.96 114.853 25.96H2.93427C2.36533 25.9579 1.82028 25.731 1.41797 25.3287C1.01567 24.9264 0.788739 24.3813 0.786667 23.8124V2.93427C0.788739 2.36533 1.01567 1.82028 1.41797 1.41797C1.82028 1.01567 2.36533 0.788739 2.93427 0.786667H114.853C115.479 0.786667 116.08 1.03531 116.522 1.47789C116.965 1.92048 117.213 2.52076 117.213 3.14667V23.6Z" fill="white"/>
<path d="M13.4286 8.84375H10.0459V17.3083H11.5563V14.0358H13.4286C15.3166 14.0358 16.4966 13.1232 16.4966 11.4398C16.4966 9.75628 15.3166 8.84375 13.4286 8.84375ZM13.3499 12.7771H11.5563V10.1811H13.3735C14.4591 10.1811 15.0334 10.6452 15.0334 11.4791C15.0334 12.313 14.4355 12.7378 13.3735 12.7378L13.3499 12.7771Z" fill="white"/>
<path d="M19.7453 11.0158C19.3317 11.011 18.9217 11.0928 18.5416 11.2559C18.1615 11.419 17.8198 11.6597 17.5383 11.9627C17.2567 12.2657 17.0417 12.6242 16.907 13.0153C16.7723 13.4063 16.7208 13.8212 16.7559 14.2333C16.7191 14.6477 16.7688 15.0652 16.9021 15.4592C17.0354 15.8533 17.2492 16.2153 17.5301 16.5222C17.8109 16.8291 18.1525 17.0742 18.5332 17.2419C18.9139 17.4096 19.3253 17.4962 19.7413 17.4962C20.1573 17.4962 20.5688 17.4096 20.9495 17.2419C21.3302 17.0742 21.6718 16.8291 21.9526 16.5222C22.2334 16.2153 22.4473 15.8533 22.5806 15.4592C22.7138 15.0652 22.7636 14.6477 22.7267 14.2333C22.763 13.8216 22.7127 13.4069 22.5789 13.0159C22.4451 12.6248 22.2308 12.2662 21.9499 11.963C21.669 11.6599 21.3277 11.419 20.9479 11.2558C20.5682 11.0927 20.1585 11.0109 19.7453 11.0158ZM19.7453 16.2629C18.7855 16.2629 18.1719 15.4762 18.1719 14.2333C18.1719 12.9904 18.7698 12.2037 19.7453 12.2037C20.7207 12.2037 21.3186 12.9904 21.3186 14.2333C21.3186 15.4762 20.6971 16.255 19.7453 16.255V16.2629Z" fill="white"/>
<path d="M28.9335 15.2236L27.8243 11.1172H26.6601L25.5587 15.2236L24.4417 11.1172H22.9863L24.8507 17.3161H26.0779L27.2107 13.2569L28.3435 17.3161H29.5707L31.4351 11.1172H30.0349L28.9335 15.2236Z" fill="white"/>
<path d="M34.6132 11.0156C34.205 11.0232 33.8027 11.1137 33.4305 11.2815C33.0584 11.4493 32.7242 11.691 32.4484 11.9919C32.1725 12.2928 31.9606 12.6466 31.8256 13.0319C31.6907 13.4171 31.6354 13.8258 31.6632 14.2331C31.6303 14.6467 31.6841 15.0626 31.8211 15.4542C31.9582 15.8458 32.1754 16.2044 32.459 16.5073C32.7426 16.8101 33.0863 17.0504 33.468 17.2129C33.8498 17.3753 34.2613 17.4562 34.6761 17.4506C35.2465 17.4813 35.8121 17.3323 36.2933 17.0247C36.7745 16.717 37.1471 16.2662 37.3587 15.7356L36.1865 15.2479C36.0945 15.5519 35.9019 15.8156 35.6404 15.9957C35.3788 16.1758 35.0637 16.2616 34.7469 16.2391C34.5213 16.2445 34.2969 16.204 34.0873 16.1201C33.8778 16.0362 33.6874 15.9107 33.5278 15.7511C33.3682 15.5915 33.2427 15.4012 33.1588 15.1916C33.0749 14.9821 33.0345 14.7577 33.0399 14.532H37.3823V14.06C37.398 12.3608 36.4383 11.0156 34.6132 11.0156ZM33.0949 13.4779C33.1501 13.1167 33.3343 12.7877 33.6135 12.5519C33.8926 12.3161 34.2478 12.1895 34.6132 12.1956C34.7868 12.181 34.9615 12.2034 35.1258 12.2615C35.29 12.3196 35.44 12.412 35.5658 12.5326C35.6915 12.6531 35.7902 12.7991 35.8552 12.9607C35.9201 13.1223 35.95 13.296 35.9427 13.47L33.0949 13.4779Z" fill="white"/>
<path d="M39.876 12.0364V11.116H38.46V17.3071H39.876V14.0582C39.8633 13.8483 39.8954 13.6381 39.97 13.4415C40.0446 13.2449 40.1601 13.0663 40.3088 12.9176C40.4574 12.7689 40.636 12.6535 40.8326 12.5789C41.0292 12.5043 41.2394 12.4722 41.4493 12.4848C41.6221 12.4726 41.7956 12.4726 41.9685 12.4848V11.0688C41.8584 11.0688 41.7325 11.0688 41.5673 11.0688C41.2223 11.0509 40.8794 11.1327 40.5795 11.3042C40.2796 11.4758 40.0354 11.7299 39.876 12.0364Z" fill="white"/>
<path d="M45.2177 11.0156C44.8095 11.0232 44.4072 11.1137 44.035 11.2815C43.6629 11.4493 43.3287 11.691 43.0529 11.9919C42.777 12.2928 42.5651 12.6466 42.4301 13.0319C42.2952 13.4171 42.2399 13.8258 42.2677 14.2331C42.2348 14.6467 42.2886 15.0626 42.4256 15.4542C42.5627 15.8458 42.7799 16.2044 43.0635 16.5073C43.3471 16.8101 43.6908 17.0504 44.0725 17.2129C44.4543 17.3753 44.8658 17.4562 45.2806 17.4506C45.8457 17.4746 46.4043 17.3225 46.8792 17.0153C47.3542 16.7081 47.7219 16.2609 47.9317 15.7356L46.7202 15.2715C46.6282 15.5755 46.4356 15.8392 46.174 16.0193C45.9125 16.1994 45.5974 16.2852 45.2806 16.2627C45.0596 16.2607 44.8412 16.2147 44.638 16.1275C44.4349 16.0403 44.2512 15.9136 44.0974 15.7548C43.9437 15.596 43.8231 15.4082 43.7426 15.2023C43.6621 14.9964 43.6234 14.7766 43.6286 14.5556H47.9867V14.0836C47.9867 12.3608 47.0113 11.0156 45.2177 11.0156ZM43.6994 13.4779C43.7561 13.1195 43.9399 12.7934 44.2173 12.5594C44.4946 12.3254 44.847 12.199 45.2098 12.2035C45.3834 12.1888 45.5581 12.2113 45.7224 12.2694C45.8866 12.3275 46.0366 12.4199 46.1624 12.5404C46.2881 12.661 46.3868 12.8069 46.4518 12.9686C46.5168 13.1302 46.5466 13.3038 46.5393 13.4779H43.6994Z" fill="white"/>
<path d="M53.1472 11.8016C52.929 11.5455 52.6558 11.3417 52.348 11.2056C52.0402 11.0694 51.7058 11.0042 51.3694 11.015C49.6308 11.015 48.6396 12.4703 48.6396 14.2324C48.6396 15.9946 49.6308 17.4499 51.3694 17.4499C51.706 17.4623 52.041 17.398 52.3491 17.2617C52.6571 17.1254 52.9301 16.9207 53.1472 16.6632V17.3083H54.5632V8.84375H53.1472V11.8016ZM53.1472 14.437C53.179 14.6613 53.1619 14.8898 53.0972 15.1069C53.0324 15.324 52.9216 15.5245 52.7722 15.6948C52.6228 15.8651 52.4384 16.0011 52.2316 16.0936C52.0248 16.1861 51.8004 16.2328 51.5739 16.2305C50.5434 16.2305 50.0006 15.4439 50.0006 14.2482C50.0006 13.0524 50.5512 12.2658 51.5739 12.2658C52.4471 12.2658 53.1472 12.9029 53.1472 14.0672V14.437Z" fill="white"/>
<path d="M62.3904 11.015C62.0477 11 61.7061 11.063 61.3913 11.1992C61.0765 11.3355 60.7968 11.5415 60.5732 11.8016V8.84375H59.1572V17.3083H60.5732V16.6554C60.7927 16.9121 61.0672 17.1162 61.3764 17.2524C61.6855 17.3885 62.0213 17.4534 62.359 17.442C64.0896 17.442 65.0808 15.9788 65.0808 14.2246C65.0808 12.4703 64.1211 11.015 62.3904 11.015ZM62.1466 16.207C61.92 16.2092 61.6957 16.1625 61.4889 16.07C61.2821 15.9775 61.0977 15.8415 60.9483 15.6712C60.7989 15.5009 60.6881 15.3004 60.6233 15.0833C60.5586 14.8662 60.5415 14.6377 60.5732 14.4134V14.0436C60.5732 12.8794 61.234 12.2422 62.1466 12.2422C63.1692 12.2422 63.7199 13.0288 63.7199 14.2246C63.7199 15.4203 63.1299 16.207 62.1466 16.207Z" fill="white"/>
<path d="M68.385 15.4675L66.8667 11.1172H65.3721L67.6534 17.088L67.4174 17.6701C67.3773 17.8696 67.2615 18.0457 67.0943 18.1616C66.927 18.2775 66.7214 18.3241 66.5206 18.2916C66.3635 18.3031 66.2057 18.3031 66.0486 18.2916V19.4795C66.2387 19.5077 66.4307 19.5209 66.6229 19.5188C67.114 19.5545 67.6021 19.4165 68.0018 19.1289C68.4015 18.8414 68.6875 18.4225 68.8098 17.9455L71.3586 11.1644H69.8718L68.385 15.4675Z" fill="white"/>
<path d="M98.3334 9.77738C98.0228 9.77559 97.7149 9.83512 97.4273 9.95256C97.1398 10.07 96.8783 10.2431 96.6578 10.4618L96.5476 9.91898H94.6675V20.0827L96.8072 19.6186V17.1563C97.2328 17.5127 97.7704 17.7077 98.3255 17.707C99.8516 17.707 101.252 16.4562 101.252 13.6871C101.252 11.154 99.8359 9.77738 98.3334 9.77738ZM97.822 15.7796C97.6343 15.7905 97.4466 15.7594 97.2724 15.6886C97.0983 15.6179 96.942 15.5092 96.8151 15.3706V12.1374C96.9426 11.9937 97.1006 11.8802 97.2775 11.8054C97.4544 11.7305 97.6458 11.6961 97.8378 11.7047C98.6244 11.7047 99.1594 12.5936 99.1594 13.7343C99.1594 14.875 98.6165 15.7796 97.822 15.7796Z" fill="white"/>
<path d="M105.201 9.77734C103.14 9.77734 101.889 11.5552 101.889 13.7972C101.889 16.4483 103.368 17.7935 105.476 17.7935C106.299 17.8069 107.112 17.6092 107.836 17.2192V15.4492C107.178 15.7813 106.449 15.9486 105.712 15.9369C104.863 15.9369 104.139 15.6301 104.029 14.5996H108.261C108.261 14.4816 108.261 14.0175 108.261 13.8129C108.332 11.5552 107.262 9.77734 105.201 9.77734ZM104.045 12.9791C104.045 11.9879 104.65 11.5709 105.185 11.5709C105.72 11.5709 106.287 11.9879 106.287 12.9791H104.045Z" fill="white"/>
<path d="M88.8934 10.5082L88.7596 9.86318H86.9346V17.5017H89.0428V12.3254C89.2332 12.0943 89.4897 11.9267 89.7778 11.8452C90.066 11.7637 90.3722 11.772 90.6555 11.8692V9.86318C90.3337 9.7371 89.9768 9.7331 89.6522 9.85192C89.3277 9.97074 89.0577 10.2042 88.8934 10.5082Z" fill="white"/>
<path d="M78.2419 12.1613C78.2419 11.8151 78.5251 11.6814 78.9735 11.6814C79.7167 11.6974 80.4451 11.8916 81.0975 12.2478V10.1789C80.423 9.90613 79.7011 9.76977 78.9735 9.77767C77.235 9.77767 76.0786 10.7059 76.0786 12.2635C76.0786 14.7022 79.3354 14.3089 79.3354 15.3551C79.3354 15.7642 78.9893 15.8979 78.5487 15.8979C77.7176 15.8494 76.9094 15.6069 76.1887 15.1899V17.3061C76.9315 17.6373 77.7355 17.8089 78.5487 17.8095C80.3266 17.8095 81.5538 16.9049 81.5538 15.3237C81.5145 12.6805 78.2419 13.1525 78.2419 12.1613Z" fill="white"/>
<path d="M84.3937 8.05469L82.3091 8.51095V15.5359C82.2983 15.8319 82.348 16.1271 82.4552 16.4033C82.5624 16.6794 82.7247 16.9309 82.9324 17.1422C83.14 17.3535 83.3885 17.5202 83.6628 17.6322C83.937 17.7443 84.2313 17.7992 84.5275 17.7936C85.0443 17.8167 85.5592 17.717 86.03 17.5026V15.7326C85.7547 15.8506 84.4095 16.2518 84.4095 14.9459V11.7992H86.03V9.95842H84.4095L84.3937 8.05469Z" fill="white"/>
<path d="M91.4502 9.20619L93.5978 8.75779V7.05859L91.4502 7.50699V9.20619Z" fill="white"/>
<path d="M93.5978 9.92188H91.4502V17.5053H93.5978V9.92188Z" fill="white"/>
</svg>
