<svg width="34" height="34" viewBox="0 0 34 34" fill="none" xmlns="http://www.w3.org/2000/svg">
<path d="M32.8453 15C33.5598 16.2376 33.5598 17.7624 32.8453 19L26.6547 29.7224C25.9402 30.96 24.6197 31.7224 23.1906 31.7224L10.8094 31.7224C9.38034 31.7224 8.05983 30.96 7.3453 29.7224L1.1547 19C0.44017 17.7624 0.44017 16.2376 1.1547 15L7.3453 4.27757C8.05983 3.03996 9.38034 2.27757 10.8094 2.27757L23.1906 2.27757C24.6197 2.27757 25.9402 3.03996 26.6547 4.27757L32.8453 15Z" fill="url(#paint0_linear_10620_21103)"/>
<path d="M16.8035 25.5C22.8934 25.5 27.2003 23.2333 27.2003 19.4027C27.2003 16.388 24.5606 15.2093 20.5547 14.96L18.378 14.824C17.1294 14.7585 17.0187 14.5459 17.0122 14.3481L17.0119 14.3329L17.0119 14.3253C17.0119 13.94 17.2434 13.7133 19.1422 13.7133C22.1987 13.7133 24.4911 14.3027 26.0425 15.028V10.0413C24.7458 9.452 22.1292 8.5 17.475 8.5C9.90313 8.5 6.80029 10.9707 6.80029 14.144C6.80029 16.9773 9.30109 18.4733 13.7933 18.9493L15.9467 19.176C16.6645 19.244 16.9192 19.38 16.9192 19.72C16.9192 20.1053 16.5719 20.2413 15.4373 20.2413C12.3345 20.2413 8.81482 19.2213 7.12447 18.02V23.0747C9.25478 24.3893 12.5429 25.5 16.8035 25.5Z" fill="#111118"/>
<defs>
<linearGradient id="paint0_linear_10620_21103" x1="30.5" y1="25.5" x2="2" y2="8" gradientUnits="userSpaceOnUse">
<stop stop-color="#6F5209"/>
<stop offset="0.208321" stop-color="#FFBC0F"/>
<stop offset="0.656256" stop-color="#A67C0F"/>
<stop offset="1" stop-color="#FFBC0F"/>
</linearGradient>
</defs>
</svg>
