<svg width="124" height="22" viewBox="0 0 124 22" fill="none" xmlns="http://www.w3.org/2000/svg">
<path fill-rule="evenodd" clip-rule="evenodd" d="M19.0752 12.0507C19.0752 15.8639 15.1227 18.2349 9.37802 18.2349C5.4746 18.2349 2.33223 17.1839 0.220948 15.8884V10.9996C2.18493 12.2951 5.3273 13.2973 8.34692 13.2973C9.96721 13.2973 10.6546 13.0285 10.6546 12.4418C10.6546 11.904 10.2373 11.6352 8.93612 11.4396L6.55479 11.073C2.16038 10.4374 0 8.75082 0 5.79314C0 2.46881 3.04417 0 9.91811 0C14.1161 0 16.6448 0.977745 17.9459 1.68661V6.45312C16.5466 5.71981 14.1652 4.9865 11.121 4.9865C8.96067 4.9865 8.37147 5.30427 8.37147 5.84203C8.37147 6.25757 8.64152 6.50201 10.1391 6.67311L12.6922 6.96643C16.792 7.45531 19.0752 8.87304 19.0752 12.0507ZM34.2223 10.4131L31.9637 17.6729H23.9851L19.247 3.20227H26.931L28.625 10.8287L30.8344 3.20227H38.1257L40.4089 10.902L42.1519 3.20227H49.4923L45.0979 17.6729H36.6527L34.2223 10.4131ZM54.6724 18.1628C57.1764 18.1628 58.9686 17.1606 59.9751 15.6451V17.6739H67.3646V10.9275C67.3646 5.501 64.0995 2.54332 57.8147 2.54332C54.4023 2.54332 51.8491 3.39885 50.0816 4.52326V9.55864C51.3827 8.53201 53.3467 7.84759 55.1879 7.84759C57.8147 7.84759 59.6069 8.94755 59.9015 11.0741C58.7476 9.72975 57.2501 9.06977 55.0897 9.06977C51.7264 9.06977 49.4433 10.9275 49.4433 13.6652C49.4433 16.2562 51.4072 18.1628 54.6724 18.1628ZM56.219 13.2475C56.219 14.0786 56.9064 14.6408 57.9866 14.6408C59.165 14.6408 59.9751 14.0541 59.9751 13.2475C59.9751 12.4164 59.1895 11.8542 58.0111 11.8542C56.9064 11.8542 56.219 12.4408 56.219 13.2475ZM76.939 17.6709V14.3711C76.939 10.7778 78.6084 9.36011 81.4561 9.36011C82.7082 9.36011 83.6411 9.65343 84.1075 9.92231V3.34697C83.6656 3.12698 82.7573 2.80921 81.6771 2.80921C78.9766 2.80921 77.4545 4.34916 76.7671 7.91793V3.20031H69.2794V17.6709H76.939ZM95.1549 15.6451C94.1484 17.1606 92.3562 18.1628 89.8521 18.1628C86.587 18.1628 84.623 16.2562 84.623 13.6652C84.623 10.9275 86.9062 9.06977 90.2695 9.06977C92.4299 9.06977 93.9274 9.72975 95.0812 11.0741C94.7866 8.94755 92.9945 7.84759 90.3677 7.84759C88.5265 7.84759 86.5625 8.53201 85.2613 9.55864V4.52326C87.0289 3.39885 89.5821 2.54332 92.9945 2.54332C99.2793 2.54332 102.544 5.501 102.544 10.9275V17.6739H95.1549V15.6451ZM93.1664 14.6408C92.0862 14.6408 91.3988 14.0786 91.3988 13.2475C91.3988 12.4408 92.0862 11.8542 93.191 11.8542C94.3693 11.8542 95.1549 12.4164 95.1549 13.2475C95.1549 14.0541 94.3448 14.6408 93.1664 14.6408ZM123.387 3.20227L113.813 21.9994H105.196L108.289 16.3285L101.882 3.20227H109.909L112.536 9.92427L115.384 3.20227H123.387Z" fill="white"/>
</svg>
