<svg width="20" height="20" viewBox="0 0 20 20" fill="none" xmlns="http://www.w3.org/2000/svg">
<g opacity="0.7">
<path d="M18.8453 8C19.5598 9.23761 19.5598 10.7624 18.8453 12L16.1547 16.6603C15.4402 17.8979 14.1197 18.6603 12.6906 18.6603L7.3094 18.6603C5.88034 18.6603 4.55983 17.8979 3.8453 16.6603L1.1547 12C0.440168 10.7624 0.440168 9.2376 1.1547 8L3.8453 3.33974C4.55983 2.10214 5.88034 1.33974 7.3094 1.33974L12.6906 1.33975C14.1197 1.33975 15.4402 2.10214 16.1547 3.33975L18.8453 8Z" fill="white"/>
<path d="M9.88422 15C13.4665 15 16 13.6667 16 11.4133C16 9.64 14.4472 8.94667 12.0908 8.8L10.8104 8.72C10.0759 8.68148 10.0108 8.55641 10.007 8.44005L10.0068 8.43112L10.0068 8.42667C10.0068 8.2 10.143 8.06667 11.2599 8.06667C13.0579 8.06667 14.4064 8.41333 15.319 8.84V5.90667C14.5562 5.56 13.017 5 10.2792 5C5.8252 5 4 6.45333 4 8.32C4 9.98667 5.47106 10.8667 8.11351 11.1467L9.38025 11.28C9.8025 11.32 9.95233 11.4 9.95233 11.6C9.95233 11.8267 9.74801 11.9067 9.08059 11.9067C7.25539 11.9067 5.18502 11.3067 4.19069 10.6V13.5733C5.44381 14.3467 7.37798 15 9.88422 15Z" fill="#111118"/>
</g>
</svg>
